<svg xmlns="http://www.w3.org/2000/svg" xmlns:xlink="http://www.w3.org/1999/xlink" width="808px" height="508px" viewBox="0 0 808 508"><title>Group 2 Copy</title><g id="-" stroke="none" stroke-width="1" fill="none" fill-rule="evenodd"><g id="Group-2-Copy"><path d="M71.8503125,330 C77.6373438,330 82.79875,329.022461 87.3345312,327.067383 C91.8703125,325.112305 95.5588932,322.427331 98.4002734,319.012461 C101.241654,315.597591 103.027292,311.700469 103.757188,307.321094 C104.382812,303.567344 104.096068,300.276296 102.896953,297.447949 C101.697839,294.619603 99.8209635,292.403848 97.2663281,290.800684 C94.7116927,289.19752 91.7139062,288.343802 88.2729687,288.239531 L88.2729687,288.239531 L88.429375,287.4575 C93.1997656,286.519063 97.2728451,284.459714 100.648613,281.279453 C104.024382,278.099193 106.103281,274.319375 106.885312,269.94 C107.901953,263.840156 106.324857,258.978529 102.154023,255.355117 C97.9831901,251.731706 91.3228906,249.92 82.173125,249.92 L82.173125,249.92 L47.4509375,249.92 L34.1564063,330 L71.8503125,330 Z M72.78875,282.296094 L63.8735937,282.296094 L66.3760937,266.968281 L75.6040625,266.968281 C78.2629687,266.968281 80.3809701,267.619974 81.9580664,268.923359 C83.5351628,270.226745 84.1282031,272.129687 83.7371875,274.632187 C83.3461719,277.056484 82.1275065,278.939876 80.0811914,280.282363 C78.0348763,281.62485 75.6040625,282.296094 72.78875,282.296094 L72.78875,282.296094 Z M69.035,312.638906 L58.8685938,312.638906 L61.5275,295.747031 L72.0067188,295.747031 C75.3694531,295.747031 77.8654362,296.502995 79.494668,298.014922 C81.1238997,299.526849 81.7039063,301.690469 81.2346875,304.505781 C80.4265885,309.927865 76.360026,312.638906 69.035,312.638906 L69.035,312.638906 Z M144.848635,331.094844 C151.886917,331.094844 158.495081,329.595951 164.673128,326.598164 C170.851174,323.600378 176.103818,319.155833 180.431057,313.264531 C184.758297,307.373229 187.651812,300.074271 189.111604,291.367656 C190.623531,282.243958 190.121728,274.514883 187.606194,268.18043 C185.09066,261.845977 181.076233,257.036484 175.562913,253.751953 C170.049592,250.467422 163.56525,248.825156 156.109885,248.825156 C149.019469,248.825156 142.359169,250.350117 136.128987,253.400039 C129.898805,256.449961 124.620094,260.946641 120.292854,266.890078 C115.965614,272.833516 113.098167,280.158542 111.69051,288.865156 C110.178583,297.936719 110.686904,305.613659 113.215471,311.895977 C115.744039,318.178294 119.7715,322.948685 125.297854,326.207148 C130.824208,329.465612 137.341135,331.094844 144.848635,331.094844 Z M145.630667,312.169688 C140.625667,312.169688 137.054391,310.442702 134.916838,306.98873 C132.779286,303.534759 132.336135,298.327734 133.587385,291.367656 C134.760432,283.938359 137.230348,278.144811 140.997131,273.987012 C144.763915,269.829212 149.540823,267.750313 155.327854,267.750313 C160.411057,267.750313 163.936715,269.548984 165.904827,273.146328 C167.872939,276.743672 168.309573,281.983281 167.214729,288.865156 C165.963479,296.294453 163.48053,302.035866 159.765881,306.089395 C156.051233,310.142923 151.339495,312.169688 145.630667,312.169688 Z M229.890239,331.094844 C236.928521,331.094844 243.536685,329.595951 249.714732,326.598164 C255.892778,323.600378 261.145422,319.155833 265.472661,313.264531 C269.799901,307.373229 272.693416,300.074271 274.153208,291.367656 C275.665135,282.243958 275.163332,274.514883 272.647798,268.18043 C270.132264,261.845977 266.117837,257.036484 260.604517,253.751953 C255.091196,250.467422 248.606854,248.825156 241.151489,248.825156 C234.061073,248.825156 227.400773,250.350117 221.170591,253.400039 C214.940409,256.449961 209.661698,260.946641 205.334458,266.890078 C201.007219,272.833516 198.139771,280.158542 196.732114,288.865156 C195.220187,297.936719 195.728508,305.613659 198.257075,311.895977 C200.785643,318.178294 204.813104,322.948685 210.339458,326.207148 C215.865812,329.465612 222.382739,331.094844 229.890239,331.094844 Z M230.672271,312.169688 C225.667271,312.169688 222.095995,310.442702 219.958443,306.98873 C217.82089,303.534759 217.377739,298.327734 218.628989,291.367656 C219.802036,283.938359 222.271952,278.144811 226.038736,273.987012 C229.805519,269.829212 234.582427,267.750313 240.369458,267.750313 C245.452661,267.750313 248.978319,269.548984 250.946431,273.146328 C252.914543,276.743672 253.351177,281.983281 252.256333,288.865156 C251.005083,296.294453 248.522134,302.035866 244.807486,306.089395 C241.092837,310.142923 236.381099,312.169688 230.672271,312.169688 Z M314.775437,330 L325.09825,267.4375 L349.184812,267.4375 L352.156531,249.92 L282.55575,249.92 L279.584031,267.4375 L303.670593,267.4375 L293.347781,330 L314.775437,330 Z M376.825323,330.938437 C386.991729,330.938437 395.300811,328.820436 401.752569,324.584434 C408.204326,320.348431 412.094932,314.281172 413.424385,306.382656 C414.441026,300.282812 413.333148,295.13444 410.100752,290.937539 C406.868356,286.740638 400.990088,283.70375 392.465948,281.826875 L392.465948,281.826875 L386.209698,280.419219 C378.962875,278.881224 375.782614,276.326589 376.668916,272.755313 C376.981729,270.956641 377.991853,269.490332 379.699287,268.356387 C381.406722,267.222441 383.941807,266.655469 387.304541,266.655469 C390.823682,266.655469 393.326182,267.391882 394.812041,268.864707 C396.297901,270.337533 396.923526,272.364297 396.688916,274.945 L396.688916,274.945 L417.490948,274.945 C418.37725,269.679323 417.862412,265.091406 415.946436,261.18125 C414.030459,257.271094 410.8893,254.234206 406.522959,252.070586 C402.156618,249.906966 396.741052,248.825156 390.27626,248.825156 C383.915739,248.825156 378.122191,249.887415 372.895616,252.011934 C367.66904,254.136452 363.367868,257.108171 359.9921,260.92709 C356.616332,264.746009 354.511364,269.210104 353.677198,274.319375 C352.660557,280.575625 353.885739,285.502422 357.352744,289.099766 C360.81975,292.697109 365.955088,295.277812 372.75876,296.841875 L372.75876,296.841875 L380.422666,298.562344 C384.723838,299.500781 387.676006,300.589108 389.27917,301.827324 C390.882334,303.06554 391.52751,304.583984 391.214698,306.382656 C390.901885,308.337734 389.748389,309.947415 387.754209,311.211699 C385.76003,312.475983 383.003369,313.108125 379.484229,313.108125 C375.339463,313.108125 372.230889,312.150137 370.158506,310.23416 C368.086123,308.318184 367.284541,305.522422 367.75376,301.846875 L367.75376,301.846875 L347.108135,301.846875 C346.013291,308.520208 346.541162,314.000944 348.691748,318.289082 C350.842334,322.57722 354.335407,325.75748 359.170967,327.829863 C364.006527,329.902246 369.891312,330.938437 376.825323,330.938437 Z M458.582395,330 L468.905208,267.4375 L492.99177,267.4375 L495.963489,249.92 L426.362708,249.92 L423.390989,267.4375 L447.477552,267.4375 L437.154739,330 L458.582395,330 Z M509.996656,330 L514.415132,303.567344 L521.922632,303.567344 L531.580718,330 L555.198062,330 L543.89771,300.126406 C548.511695,298.067057 552.337131,295.108372 555.374019,291.250352 C558.410907,287.392331 560.385536,282.687109 561.297906,277.134687 C562.236343,271.451927 561.806226,266.577266 560.007554,262.510703 C558.208882,258.444141 555.263231,255.329049 551.170601,253.16543 C547.077971,251.00181 542.059937,249.92 536.116499,249.92 L536.116499,249.92 L501.550718,249.92 L488.256187,330 L509.996656,330 Z M524.855249,286.675469 L517.230445,286.675469 L520.475874,267.281094 L528.139781,267.281094 C531.893531,267.281094 534.71536,268.063125 536.605269,269.627187 C538.495178,271.19125 539.166421,273.69375 538.618999,277.134687 C538.071578,280.575625 536.598752,283.02599 534.200523,284.485781 C531.802294,285.945573 528.687203,286.675469 524.855249,286.675469 L524.855249,286.675469 Z M581.118104,330 L588.312791,314.672188 L614.706346,314.672188 L616.778729,330 L640.239666,330 L627.101541,249.92 L597.384354,249.92 L557.657166,330 L581.118104,330 Z M612.516658,298.405937 L595.937596,298.405937 L608.332791,271.973281 L608.958416,271.973281 L612.516658,298.405937 Z M667.098145,330 L671.086505,306.22625 L683.051583,306.22625 C689.203562,306.22625 694.762501,305.098822 699.728399,302.843965 C704.694297,300.589108 708.786928,297.369746 712.00629,293.185879 C715.225652,289.002012 717.304551,284.016563 718.242989,278.229531 C719.181426,272.546771 718.764343,267.580872 716.991739,263.331836 C715.219135,259.082799 712.299551,255.785234 708.232989,253.439141 C704.166426,251.093047 699.161426,249.92 693.217989,249.92 L693.217989,249.92 L658.652208,249.92 L645.357676,330 L667.098145,330 Z M681.48752,289.334375 L673.901817,289.334375 L677.577364,267.281094 L685.24127,267.281094 C689.073223,267.281094 691.888536,268.245599 693.687208,270.174609 C695.48588,272.10362 696.111505,274.788594 695.564083,278.229531 C695.016661,281.670469 693.511251,284.38151 691.047852,286.362656 C688.584454,288.343802 685.397676,289.334375 681.48752,289.334375 L681.48752,289.334375 Z M766.485728,331.094844 C773.028723,331.094844 778.920025,329.869661 784.159635,327.419297 C789.399244,324.968932 793.700416,321.593164 797.06315,317.291992 C800.425885,312.99082 802.537369,308.05099 803.397603,302.4725 C804.257838,297.415365 803.931991,292.931719 802.420064,289.021563 C800.908137,285.111406 798.470806,282.048451 795.108072,279.832695 C791.745338,277.61694 787.678775,276.509063 782.908385,276.509063 C778.86789,276.509063 775.172792,277.310645 771.823092,278.913809 C768.473391,280.516973 765.964374,282.530703 764.296041,284.955 L764.296041,284.955 L763.826822,284.955 L768.362603,267.281094 L804.336041,267.281094 L807.151353,249.92 L753.347603,249.92 L742.868385,294.026563 L761.324322,297.780313 C762.60164,295.825234 764.296041,294.293757 766.407525,293.185879 C768.51901,292.078001 770.734765,291.524063 773.054791,291.524063 C776.36539,291.524063 778.900474,292.573288 780.660045,294.671738 C782.419615,296.770189 783.012655,299.578984 782.439166,303.098125 C781.839609,306.617266 780.321165,309.426061 777.883834,311.524512 C775.446503,313.622962 772.533437,314.672188 769.144635,314.672188 C766.277187,314.672188 763.957161,313.844538 762.184556,312.189238 C760.411952,310.533939 759.708124,308.337734 760.073072,305.600625 L760.073072,305.600625 L738.958228,305.600625 C738.202265,310.55349 738.866991,314.945898 740.952408,318.777852 C743.037825,322.609805 746.283254,325.620625 750.688697,327.810313 C755.09414,330 760.359817,331.094844 766.485728,331.094844 Z" id="BOOTSTRAP5" fill="#FFFFFF" fill-rule="nonzero"></path><path d="M69.5784375,506 C80.2164631,506 89.7044318,504.203036 98.0423438,500.609109 C106.380256,497.015181 113.160799,492.079521 118.383974,485.802127 C123.607148,479.524734 126.889602,472.360838 128.231335,464.31044 C129.381392,457.410099 128.854283,451.360321 126.650007,446.161106 C124.445732,440.961891 120.995561,436.888773 116.299496,433.941752 C111.60343,430.994732 106.092741,429.425384 99.767429,429.233707 L99.767429,429.233707 L100.054943,427.796136 C108.824126,426.071051 116.311475,422.285447 122.51699,416.439325 C128.722505,410.593203 132.544048,403.644943 133.981619,395.594545 C135.850462,384.381491 132.95136,375.444592 125.284315,368.783846 C117.617269,362.1231 105.373956,358.792727 88.554375,358.792727 L88.554375,358.792727 L24.7262216,358.792727 L0.287514205,506 L69.5784375,506 Z M71.3035227,418.308168 L54.9152131,418.308168 L59.5154403,390.131776 L76.4787784,390.131776 C81.3665199,390.131776 85.2599414,391.329751 88.159043,393.725703 C91.0581445,396.121655 92.1483026,399.619744 91.429517,404.219972 C90.7107315,408.676442 88.4705167,412.138592 84.7088725,414.606422 C80.9472283,417.074252 76.4787784,418.308168 71.3035227,418.308168 L71.3035227,418.308168 Z M64.4031818,474.085923 L45.7147585,474.085923 L50.6025,443.034389 L69.8659517,443.034389 C76.0475071,443.034389 80.6357546,444.424041 83.6306942,447.203345 C86.6256339,449.982649 87.6918324,453.959929 86.8292898,459.135185 C85.3437997,469.102344 77.8684304,474.085923 64.4031818,474.085923 L64.4031818,474.085923 Z M193.992315,507.725085 C206.834617,507.725085 218.359144,505.748425 228.565899,501.795105 C238.772653,497.841784 247.134524,492.019622 253.651513,484.328617 C260.168502,476.637612 264.337458,467.185582 266.158381,455.972528 L266.158381,455.972528 L282.259176,358.792727 L242.582216,358.792727 L226.768935,454.247443 C225.906392,459.710213 223.05521,464.142724 218.215387,467.544975 C213.375565,470.947227 207.217969,472.648352 199.7426,472.648352 C192.410987,472.648352 186.960197,470.947227 183.390229,467.544975 C179.820261,464.142724 178.466548,459.710213 179.329091,454.247443 L179.329091,454.247443 L195.142372,358.792727 L155.177898,358.792727 L139.077102,455.972528 C136.345717,472.792109 139.963605,485.622431 149.930764,494.463493 C159.897923,503.304554 174.585107,507.725085 193.992315,507.725085 Z M312.080881,506 L325.01902,428.658679 L325.881563,428.658679 L366.133551,506 L399.485199,506 L423.923906,358.792727 L383.959432,358.792727 L371.308807,435.846534 L370.15875,435.846534 L330.48179,358.792727 L296.555114,358.792727 L272.116406,506 L312.080881,506 Z M471.283978,506 C486.234716,506 499.592147,503.172777 511.35627,497.518331 C523.120393,491.863885 532.800038,483.69369 540.395205,473.007745 C547.990371,462.3218 553.03385,449.45554 555.52564,434.408963 C558.113267,418.787358 557.274684,405.322109 553.00989,394.013217 C548.745096,382.704325 541.533282,374.007021 531.374446,367.921303 C521.215611,361.835586 508.564986,358.792727 493.422571,358.792727 L493.422571,358.792727 L438.219844,358.792727 L413.781137,506 L471.283978,506 Z M473.871605,472.073324 L459.352138,472.073324 L472.577792,392.719403 L487.384773,392.719403 C495.051819,392.719403 501.305253,393.785602 506.145075,395.917999 C510.984897,398.050396 514.267351,401.836 515.992436,407.27481 C517.717522,412.71362 517.765441,420.416605 516.136194,430.383764 C514.411108,440.925952 511.619825,449.227924 507.762342,455.289682 C503.90486,461.35144 499.112957,465.664153 493.386632,468.227821 C487.660308,470.79149 481.155299,472.073324 473.871605,472.073324 L473.871605,472.073324 Z M656.938381,506 L662.401151,473.798409 L602.885711,473.798409 L621.861648,358.792727 L581.897174,358.792727 L557.458466,506 L656.938381,506 Z M774.164404,506 L779.627174,473.798409 L713.786421,473.798409 L717.81162,448.497159 L778.477117,448.497159 L783.939887,416.295568 L723.27439,416.295568 L727.299589,390.994318 L793.427856,390.994318 L798.890626,358.792727 L692.797884,358.792727 L668.359177,506 L774.164404,506 Z" id="BUNDLE" fill="#FFFFFF" fill-rule="nonzero"></path><ellipse id="Oval" fill="#7952B3" cx="403.15" cy="97.5" rx="98.15" ry="97.5"></ellipse><path d="M367.339781,49 C360.378633,49 355.227707,55.0811692 355.458363,61.6760391 C355.679727,68.0119182 355.392121,76.2178103 353.32241,82.9097126 C351.245313,89.6204029 347.734953,93.8729405 342,94.4187474 L342,100.581253 C347.734953,101.128249 351.245313,105.378646 353.322172,112.090287 C355.392121,118.78219 355.679488,126.988082 355.458125,133.323961 C355.227469,139.917879 360.378395,146 367.340734,146 L438.669512,146 C445.63066,146 450.780633,139.918831 450.549977,133.323961 C450.328613,126.988082 450.616219,118.78219 452.68593,112.090287 C454.763027,105.378646 458.264809,101.126584 464,100.581253 L464,94.4187474 C458.265047,93.8717514 454.763266,89.6213542 452.68593,82.9097126 C450.61598,76.2187616 450.328613,68.0119182 450.549977,61.6760391 C450.780633,55.0821205 445.63066,49 438.669512,49 L367.338828,49 L367.339781,49 Z M424.529412,109.071617 C424.529412,118.081833 417.711434,123.546296 406.396813,123.546296 L387.136223,123.546296 C385.988907,123.546296 385.058824,122.629471 385.058824,121.498509 L385.058824,74.3996391 C385.058824,73.2686774 385.988907,72.3518519 387.136223,72.3518519 L406.287174,72.3518519 C415.72165,72.3518519 421.913392,77.3894367 421.913392,85.1237388 C421.913392,90.5523336 417.74806,95.4122296 412.441571,96.2636258 L412.441571,96.5467953 C419.66531,97.327871 424.529412,102.259739 424.529412,109.071617 L424.529412,109.071617 Z M404.27075,78.6388889 L393.132353,78.6388889 L393.132353,93.9074074 L402.513653,93.9074074 C409.765896,93.9074074 413.764706,91.0733065 413.764706,86.0075985 C413.763978,81.2602202 410.326021,78.6388889 404.27075,78.6388889 Z M394.029412,99.2972521 L394.029412,116.361111 L405.241586,116.361111 C412.572732,116.361111 416.455882,113.379219 416.455882,107.775298 C416.455882,102.171376 412.463826,99.2962963 404.77013,99.2962963 L394.029412,99.2962963 L394.029412,99.2972521 Z" id="Shape" fill="#FFFFFF"></path></g></g></svg>